<svg xmlns="http://www.w3.org/2000/svg" width="40" height="40" viewBox="0 0 40 40">
    <g fill="none" fill-rule="evenodd">
        <circle cx="20" cy="20" r="20" fill="#2FE0FF"/>
        <g fill="#FFF" fill-rule="nonzero">
            <path d="M26.19 11.299c-3.45-2.292-8.43-2.264-11.878-.002a.55.55 0 0 0-.16.75.526.526 0 0 0 .735.164c3.1-2.033 7.627-2.058 10.722-.002a.526.526 0 0 0 .736-.159.55.55 0 0 0-.156-.751z"/>
            <path d="M28.867 16.83c-1.754-2.768-4.893-4.52-8.25-4.67-3.557-.159-6.885 1.473-9.06 4.71a.55.55 0 0 0 .137.754c.242.17.574.107.74-.14 1.964-2.922 4.94-4.381 8.136-4.239 3.02.135 5.841 1.709 7.403 4.175.16.252.49.324.736.161a.55.55 0 0 0 .158-.75z"/>
            <path d="M13.902 26.481c-1.006-3.291-.644-6.04.815-8.007 1.28-1.726 3.351-2.725 5.49-2.725 4.034 0 7.003 3.314 7.003 7.037 0 1.117-.888 2.023-1.982 2.023-1.096 0-1.987-.907-1.987-2.023h-1.064v.076h1.064c0-1.717-1.364-3.11-3.046-3.11-1.655 0-2.96 1.36-3.044 3.082-.055 1.115.302 2.607 1.05 3.913.98 1.714 2.541 3.017 4.698 3.693a.53.53 0 0 0 .665-.36.545.545 0 0 0-.352-.678c-1.896-.594-3.244-1.72-4.093-3.203-.643-1.124-.95-2.406-.906-3.31.057-1.161.91-2.05 1.982-2.05 1.095 0 1.982.906 1.982 2.023 0 .724 1.064.724 1.064 0v-.076c0-.724-1.064-.724-1.064 0 0 1.716 1.368 3.109 3.051 3.109 1.682 0 3.046-1.392 3.046-3.109 0-4.302-3.423-8.123-8.066-8.123-2.465 0-4.853 1.151-6.34 3.155-1.676 2.261-2.086 5.374-.981 8.987a.53.53 0 0 0 .666.356.545.545 0 0 0 .35-.68z"/>
            <path d="M18.403 29.282c-1.174-1.025-2.237-3.106-2.535-5.114-.343-2.305.311-4.179 2.05-5.23 3.105-1.878 6.734.394 6.734 3.987 0 .3.238.543.532.543a.538.538 0 0 0 .532-.543c0-4.415-4.51-7.238-8.34-4.922-2.154 1.302-2.963 3.62-2.56 6.329.335 2.255 1.519 4.574 2.896 5.775.223.195.56.168.75-.06a.551.551 0 0 0-.059-.765z"/>
            <path d="M19.685 22.755c-.044 1.478.663 3.303 1.886 4.359 1.106.955 2.716 1.327 4.713 1.083a.54.54 0 0 0 .465-.603.535.535 0 0 0-.59-.475c-1.727.21-3.043-.094-3.901-.835-.961-.83-1.544-2.334-1.51-3.496a.538.538 0 0 0-.515-.56.537.537 0 0 0-.548.527z"/>
        </g>
    </g>
</svg>
