<svg xmlns="http://www.w3.org/2000/svg" width="40" height="40" viewBox="0 0 40 40">
    <g fill="none" fill-rule="nonzero">
        <path fill="#8A92B2" d="M20.05 4.406V16.235c0 .051-.05.102-.1.102-.35.152-.65.305-1 .457-.45.203-.95.406-1.4.66l-1.65.761-1.35.61-1.65.761c-.45.203-.9.406-1.4.66-.35.152-.75.356-1.1.508-.05 0-.05.05-.1 0h-.05c.15-.254.3-.457.45-.71.8-1.372 1.65-2.742 2.45-4.113.85-1.473 1.75-2.945 2.6-4.417.8-1.37 1.6-2.742 2.4-4.062.6-1.015 1.2-1.98 1.75-2.995.1 0 .1-.05.15-.05-.05 0 0 0 0 0z"/>
        <path fill="#454A75" d="M29.75 20.754c-.75.508-1.55.964-2.3 1.421-2.45 1.473-4.85 2.894-7.3 4.367-.05 0-.05.05-.1.05s-.05-.05-.05-.05v-.153-9.9-.152c0-.05.05-.05.1-.05.2.1.4.202.65.304.6.304 1.25.558 1.85.863.55.254 1.05.508 1.6.71.55.254 1.05.508 1.6.762.45.203.95.406 1.4.66.45.203.95.406 1.4.66.35.152.7.356 1.1.508 0-.05 0 0 .05 0z"/>
        <path fill="#8A92B2" d="M20.05 36.543s-.05 0 0 0c-.05 0-.05 0-.1-.05-1-1.422-1.95-2.793-2.95-4.215l-3-4.264c-.95-1.37-1.95-2.742-2.9-4.163l-.75-1.066c0-.051-.05-.051-.05-.102.05 0 .05.05.1.05 1.35.813 2.75 1.625 4.1 2.438 1.55.964 3.15 1.878 4.7 2.843.25.152.55.304.8.457.05 0 .05.05.05.101v7.971z"/>
        <path fill="gray" d="M10.3 20.754s.05 0 0 0c.05 0 .05 0 0 0 0 .05 0 .05 0 0z"/>
        <path fill="#62688F" d="M10.35 20.805c0-.051 0-.051 0 0 .5-.254 1-.457 1.5-.711l1.95-.914c.5-.254 1-.457 1.5-.71.7-.356 1.45-.66 2.15-1.016.5-.203 1-.457 1.5-.66.35-.152.7-.305 1.05-.508.05 0 .05-.05.1-.05V26.591c-.05.051-.05 0-.1 0-.15-.101-.3-.152-.4-.254l-9.15-5.483c-.05-.05-.1-.05-.1-.05zM29.7 22.683c0 .05 0 .05-.05.102-2.9 4.163-5.8 8.275-8.7 12.438-.3.457-.6.863-.9 1.32v-.05-.102-7.768-.152c.65-.406 1.3-.813 1.95-1.168l7.65-4.57c0-.05.05-.05.05-.05z"/>
        <path fill="#62688F" d="M20.05 16.286v-.101V4.558v-.101l9.6 16.145c.05.05.1.101.1.152-.2-.102-.4-.203-.65-.305-.25-.101-.5-.254-.75-.355-.15-.05-.3-.152-.5-.203-.25-.102-.55-.254-.8-.356-.15-.05-.3-.152-.45-.203l-1.05-.457c-.2-.101-.35-.152-.55-.253-.25-.102-.5-.254-.75-.356-.15-.05-.3-.152-.45-.203l-1.05-.457c-.2-.101-.35-.152-.55-.254-.25-.101-.5-.254-.75-.355-.15-.102-.35-.152-.5-.254l-.9-.457z"/>
    </g>
</svg>
