<svg xmlns="http://www.w3.org/2000/svg" width="24" height="24" viewBox="0 0 24 24">
    <g fill="none" fill-rule="evenodd" stroke="#FFF" stroke-width="2">
        <path stroke-linecap="round" stroke-linejoin="round" d="M4.518 6.754l2.236-2.236L9.28 6.034l.425-.176L10.419 3h3.162l.714 2.858.425.176 2.526-1.516 2.236 2.236-1.516 2.526.176.425 2.858.714v3.162l-2.858.714-.176.425 1.516 2.526-2.236 2.236-2.526-1.516-.425.176L13.581 21h-3.162l-.714-2.858-.425-.176-2.526 1.516-2.236-2.236 1.516-2.526-.176-.425L3 13.581v-3.162l2.858-.714.176-.425-1.516-2.526z"/>
        <circle cx="12" cy="12" r="3"/>
    </g>
</svg>
