<svg xmlns="http://www.w3.org/2000/svg" xmlns:xlink="http://www.w3.org/1999/xlink" width="24" height="24" viewBox="0 0 24 24">
    <defs>
        <path id="a" d="M17 4a1 1 0 0 1 0-2h1.436c.964 0 1.477.1 2.012.385.5.268.9.666 1.167 1.167C21.9 4.087 22 4.6 22 5.564V7a1 1 0 0 1-2 0V5.564c0-.662-.039-.864-.149-1.07a.818.818 0 0 0-.346-.345C19.3 4.039 19.098 4 18.436 4H17zM4 7a1 1 0 1 1-2 0V5.564c0-.964.1-1.477.385-2.012.268-.5.666-.9 1.167-1.167C4.087 2.1 4.6 2 5.564 2H7a1 1 0 1 1 0 2H5.564c-.662 0-.864.039-1.07.149a.818.818 0 0 0-.345.346C4.039 4.7 4 4.902 4 5.564V7zm16 10a1 1 0 0 1 2 0v1.436c0 .964-.1 1.477-.385 2.012-.268.5-.666.9-1.167 1.167-.535.286-1.048.385-2.012.385H17a1 1 0 0 1 0-2h1.436c.662 0 .864-.039 1.07-.149a.818.818 0 0 0 .345-.346c.11-.205.149-.407.149-1.069V17zM7 20a1 1 0 0 1 0 2H5.564c-.964 0-1.477-.1-2.012-.385a2.817 2.817 0 0 1-1.167-1.167C2.1 19.913 2 19.4 2 18.436V17a1 1 0 0 1 2 0v1.436c0 .662.039.864.149 1.07a.818.818 0 0 0 .346.345c.205.11.407.149 1.069.149H7zm-2-9h14a1 1 0 0 1 0 2H5a1 1 0 0 1 0-2z"/>
    </defs>
    <g fill="none" fill-rule="evenodd">
        <mask id="b" fill="#fff">
            <use xlink:href="#a"/>
        </mask>
        <use fill="#FFF" fill-rule="nonzero" xlink:href="#a"/>
    </g>
</svg>
