<svg xmlns="http://www.w3.org/2000/svg" xmlns:xlink="http://www.w3.org/1999/xlink" width="360" height="640" viewBox="0 0 360 640">
    <defs>
        <radialGradient id="b" cy="18.639%" r="144.642%" fx="50%" fy="18.639%" gradientTransform="matrix(0 .5625 -1 0 .686 -.095)">
            <stop offset="0%" stop-color="#B6F4FF"/>
            <stop offset="100%" stop-color="#058CD3"/>
        </radialGradient>
        <path id="a" d="M0 0h360v640H0z"/>
    </defs>
    <g fill="none" fill-rule="evenodd" opacity=".25">
        <mask id="c" fill="#fff">
            <use xlink:href="#a"/>
        </mask>
        <use fill="url(#b)" xlink:href="#a"/>
        <g stroke="#FFF" stroke-width=".5" mask="url(#c)">
            <path d="M-34.789 104.404l20-10.206a3.928 3.928 0 0 1 3.578 0l20 10.206A4.092 4.092 0 0 1 11 108.055v19.448c0 1.546-.856 2.96-2.211 3.65l-20 10.206a3.928 3.928 0 0 1-3.578 0l-20-10.205A4.092 4.092 0 0 1-37 127.503v-19.448c0-1.546.856-2.96 2.211-3.651zM-10.789 67.636l20-10.205a3.928 3.928 0 0 1 3.578 0l20 10.205A4.092 4.092 0 0 1 35 71.288v19.447c0 1.546-.856 2.96-2.211 3.651l-20 10.206a3.928 3.928 0 0 1-3.578 0l-20-10.206A4.092 4.092 0 0 1-13 90.736V71.287c0-1.546.856-2.96 2.211-3.652z"/>
            <path d="M13.211 104.404l20-10.206a3.928 3.928 0 0 1 3.578 0l20 10.206A4.092 4.092 0 0 1 59 108.055v19.448c0 1.546-.856 2.96-2.211 3.65l-20 10.206a3.928 3.928 0 0 1-3.578 0l-20-10.205A4.092 4.092 0 0 1 11 127.503v-19.448c0-1.546.856-2.96 2.211-3.651zM37.211 67.636l20-10.205a3.928 3.928 0 0 1 3.578 0l20 10.205A4.092 4.092 0 0 1 83 71.288v19.447c0 1.546-.856 2.96-2.211 3.651l-20 10.206a3.928 3.928 0 0 1-3.578 0l-20-10.206A4.092 4.092 0 0 1 35 90.736V71.287c0-1.546.856-2.96 2.211-3.652z"/>
            <path d="M61.211 104.404l20-10.206a3.928 3.928 0 0 1 3.578 0l20 10.206a4.092 4.092 0 0 1 2.211 3.651v19.448c0 1.546-.856 2.96-2.211 3.65l-20 10.206a3.928 3.928 0 0 1-3.578 0l-20-10.205A4.092 4.092 0 0 1 59 127.503v-19.448c0-1.546.856-2.96 2.211-3.651zM85.211 67.636l20-10.205a3.928 3.928 0 0 1 3.578 0l20 10.205A4.092 4.092 0 0 1 131 71.288v19.447c0 1.546-.856 2.96-2.211 3.651l-20 10.206a3.928 3.928 0 0 1-3.578 0l-20-10.206A4.092 4.092 0 0 1 83 90.736V71.287c0-1.546.856-2.96 2.211-3.652z"/>
            <path d="M109.211 104.404l20-10.206a3.928 3.928 0 0 1 3.578 0l20 10.206a4.092 4.092 0 0 1 2.211 3.651v19.448c0 1.546-.856 2.96-2.211 3.65l-20 10.206a3.928 3.928 0 0 1-3.578 0l-20-10.205a4.092 4.092 0 0 1-2.211-3.651v-19.448c0-1.546.856-2.96 2.211-3.651zM133.211 67.636l20-10.205a3.928 3.928 0 0 1 3.578 0l20 10.205A4.092 4.092 0 0 1 179 71.288v19.447c0 1.546-.856 2.96-2.211 3.651l-20 10.206a3.928 3.928 0 0 1-3.578 0l-20-10.206a4.092 4.092 0 0 1-2.211-3.65V71.287c0-1.546.856-2.96 2.211-3.652z"/>
            <path d="M157.211 104.404l20-10.206a3.928 3.928 0 0 1 3.578 0l20 10.206a4.092 4.092 0 0 1 2.211 3.651v19.448c0 1.546-.856 2.96-2.211 3.65l-20 10.206a3.928 3.928 0 0 1-3.578 0l-20-10.205a4.092 4.092 0 0 1-2.211-3.651v-19.448c0-1.546.856-2.96 2.211-3.651zM181.211 67.636l20-10.205a3.928 3.928 0 0 1 3.578 0l20 10.205A4.092 4.092 0 0 1 227 71.288v19.447c0 1.546-.856 2.96-2.211 3.651l-20 10.206a3.928 3.928 0 0 1-3.578 0l-20-10.206a4.092 4.092 0 0 1-2.211-3.65V71.287c0-1.546.856-2.96 2.211-3.652z"/>
            <path d="M205.211 104.404l20-10.206a3.928 3.928 0 0 1 3.578 0l20 10.206a4.092 4.092 0 0 1 2.211 3.651v19.448c0 1.546-.856 2.96-2.211 3.65l-20 10.206a3.928 3.928 0 0 1-3.578 0l-20-10.205a4.092 4.092 0 0 1-2.211-3.651v-19.448c0-1.546.856-2.96 2.211-3.651zM229.211 67.636l20-10.205a3.928 3.928 0 0 1 3.578 0l20 10.205A4.092 4.092 0 0 1 275 71.288v19.447c0 1.546-.856 2.96-2.211 3.651l-20 10.206a3.928 3.928 0 0 1-3.578 0l-20-10.206a4.092 4.092 0 0 1-2.211-3.65V71.287c0-1.546.856-2.96 2.211-3.652z"/>
            <path d="M253.211 104.404l20-10.206a3.928 3.928 0 0 1 3.578 0l20 10.206a4.092 4.092 0 0 1 2.211 3.651v19.448c0 1.546-.856 2.96-2.211 3.65l-20 10.206a3.928 3.928 0 0 1-3.578 0l-20-10.205a4.092 4.092 0 0 1-2.211-3.651v-19.448c0-1.546.856-2.96 2.211-3.651zM277.211 67.636l20-10.205a3.928 3.928 0 0 1 3.578 0l20 10.205A4.092 4.092 0 0 1 323 71.288v19.447c0 1.546-.856 2.96-2.211 3.651l-20 10.206a3.928 3.928 0 0 1-3.578 0l-20-10.206a4.092 4.092 0 0 1-2.211-3.65V71.287c0-1.546.856-2.96 2.211-3.652z"/>
            <path d="M301.211 104.404l20-10.206a3.928 3.928 0 0 1 3.578 0l20 10.206a4.092 4.092 0 0 1 2.211 3.651v19.448c0 1.546-.856 2.96-2.211 3.65l-20 10.206a3.928 3.928 0 0 1-3.578 0l-20-10.205a4.092 4.092 0 0 1-2.211-3.651v-19.448c0-1.546.856-2.96 2.211-3.651zM325.211 67.636l20-10.205a3.928 3.928 0 0 1 3.578 0l20 10.205A4.092 4.092 0 0 1 371 71.288v19.447c0 1.546-.856 2.96-2.211 3.651l-20 10.206a3.928 3.928 0 0 1-3.578 0l-20-10.206a4.092 4.092 0 0 1-2.211-3.65V71.287c0-1.546.856-2.96 2.211-3.652z"/>
            <path d="M349.211 104.404l20-10.206a3.928 3.928 0 0 1 3.578 0l20 10.206a4.092 4.092 0 0 1 2.211 3.651v19.448c0 1.546-.856 2.96-2.211 3.65l-20 10.206a3.928 3.928 0 0 1-3.578 0l-20-10.205a4.092 4.092 0 0 1-2.211-3.651v-19.448c0-1.546.856-2.96 2.211-3.651z"/>
        </g>
        <g stroke="#FFF" stroke-width=".5" mask="url(#c)">
            <path d="M-34.789 30.404l20-10.206a3.928 3.928 0 0 1 3.578 0l20 10.206A4.092 4.092 0 0 1 11 34.055v19.448c0 1.546-.856 2.96-2.211 3.65l-20 10.206a3.928 3.928 0 0 1-3.578 0l-20-10.205A4.092 4.092 0 0 1-37 53.503V34.055c0-1.546.856-2.96 2.211-3.651zM-10.789-6.364l20-10.205a3.928 3.928 0 0 1 3.578 0l20 10.205A4.092 4.092 0 0 1 35-2.712v19.447c0 1.546-.856 2.96-2.211 3.651l-20 10.206a3.928 3.928 0 0 1-3.578 0l-20-10.206A4.092 4.092 0 0 1-13 16.736V-2.713c0-1.546.856-2.96 2.211-3.652z"/>
            <path d="M13.211 30.404l20-10.206a3.928 3.928 0 0 1 3.578 0l20 10.206A4.092 4.092 0 0 1 59 34.055v19.448c0 1.546-.856 2.96-2.211 3.65l-20 10.206a3.928 3.928 0 0 1-3.578 0l-20-10.205A4.092 4.092 0 0 1 11 53.503V34.055c0-1.546.856-2.96 2.211-3.651zM37.211-6.364l20-10.205a3.928 3.928 0 0 1 3.578 0l20 10.205A4.092 4.092 0 0 1 83-2.712v19.447c0 1.546-.856 2.96-2.211 3.651l-20 10.206a3.928 3.928 0 0 1-3.578 0l-20-10.206A4.092 4.092 0 0 1 35 16.736V-2.713c0-1.546.856-2.96 2.211-3.652z"/>
            <path d="M61.211 30.404l20-10.206a3.928 3.928 0 0 1 3.578 0l20 10.206A4.092 4.092 0 0 1 107 34.055v19.448c0 1.546-.856 2.96-2.211 3.65l-20 10.206a3.928 3.928 0 0 1-3.578 0l-20-10.205A4.092 4.092 0 0 1 59 53.503V34.055c0-1.546.856-2.96 2.211-3.651zM85.211-6.364l20-10.205a3.928 3.928 0 0 1 3.578 0l20 10.205A4.092 4.092 0 0 1 131-2.712v19.447c0 1.546-.856 2.96-2.211 3.651l-20 10.206a3.928 3.928 0 0 1-3.578 0l-20-10.206A4.092 4.092 0 0 1 83 16.736V-2.713c0-1.546.856-2.96 2.211-3.652z"/>
            <path d="M109.211 30.404l20-10.206a3.928 3.928 0 0 1 3.578 0l20 10.206A4.092 4.092 0 0 1 155 34.055v19.448c0 1.546-.856 2.96-2.211 3.65l-20 10.206a3.928 3.928 0 0 1-3.578 0l-20-10.205A4.092 4.092 0 0 1 107 53.503V34.055c0-1.546.856-2.96 2.211-3.651zM133.211-6.364l20-10.205a3.928 3.928 0 0 1 3.578 0l20 10.205A4.092 4.092 0 0 1 179-2.712v19.447c0 1.546-.856 2.96-2.211 3.651l-20 10.206a3.928 3.928 0 0 1-3.578 0l-20-10.206a4.092 4.092 0 0 1-2.211-3.65V-2.713c0-1.546.856-2.96 2.211-3.652z"/>
            <path d="M157.211 30.404l20-10.206a3.928 3.928 0 0 1 3.578 0l20 10.206A4.092 4.092 0 0 1 203 34.055v19.448c0 1.546-.856 2.96-2.211 3.65l-20 10.206a3.928 3.928 0 0 1-3.578 0l-20-10.205A4.092 4.092 0 0 1 155 53.503V34.055c0-1.546.856-2.96 2.211-3.651zM181.211-6.364l20-10.205a3.928 3.928 0 0 1 3.578 0l20 10.205A4.092 4.092 0 0 1 227-2.712v19.447c0 1.546-.856 2.96-2.211 3.651l-20 10.206a3.928 3.928 0 0 1-3.578 0l-20-10.206a4.092 4.092 0 0 1-2.211-3.65V-2.713c0-1.546.856-2.96 2.211-3.652z"/>
            <path d="M205.211 30.404l20-10.206a3.928 3.928 0 0 1 3.578 0l20 10.206A4.092 4.092 0 0 1 251 34.055v19.448c0 1.546-.856 2.96-2.211 3.65l-20 10.206a3.928 3.928 0 0 1-3.578 0l-20-10.205A4.092 4.092 0 0 1 203 53.503V34.055c0-1.546.856-2.96 2.211-3.651zM229.211-6.364l20-10.205a3.928 3.928 0 0 1 3.578 0l20 10.205A4.092 4.092 0 0 1 275-2.712v19.447c0 1.546-.856 2.96-2.211 3.651l-20 10.206a3.928 3.928 0 0 1-3.578 0l-20-10.206a4.092 4.092 0 0 1-2.211-3.65V-2.713c0-1.546.856-2.96 2.211-3.652z"/>
            <path d="M253.211 30.404l20-10.206a3.928 3.928 0 0 1 3.578 0l20 10.206A4.092 4.092 0 0 1 299 34.055v19.448c0 1.546-.856 2.96-2.211 3.65l-20 10.206a3.928 3.928 0 0 1-3.578 0l-20-10.205A4.092 4.092 0 0 1 251 53.503V34.055c0-1.546.856-2.96 2.211-3.651zM277.211-6.364l20-10.205a3.928 3.928 0 0 1 3.578 0l20 10.205A4.092 4.092 0 0 1 323-2.712v19.447c0 1.546-.856 2.96-2.211 3.651l-20 10.206a3.928 3.928 0 0 1-3.578 0l-20-10.206a4.092 4.092 0 0 1-2.211-3.65V-2.713c0-1.546.856-2.96 2.211-3.652z"/>
            <path d="M301.211 30.404l20-10.206a3.928 3.928 0 0 1 3.578 0l20 10.206A4.092 4.092 0 0 1 347 34.055v19.448c0 1.546-.856 2.96-2.211 3.65l-20 10.206a3.928 3.928 0 0 1-3.578 0l-20-10.205A4.092 4.092 0 0 1 299 53.503V34.055c0-1.546.856-2.96 2.211-3.651zM325.211-6.364l20-10.205a3.928 3.928 0 0 1 3.578 0l20 10.205A4.092 4.092 0 0 1 371-2.712v19.447c0 1.546-.856 2.96-2.211 3.651l-20 10.206a3.928 3.928 0 0 1-3.578 0l-20-10.206a4.092 4.092 0 0 1-2.211-3.65V-2.713c0-1.546.856-2.96 2.211-3.652z"/>
            <path d="M349.211 30.404l20-10.206a3.928 3.928 0 0 1 3.578 0l20 10.206A4.092 4.092 0 0 1 395 34.055v19.448c0 1.546-.856 2.96-2.211 3.65l-20 10.206a3.928 3.928 0 0 1-3.578 0l-20-10.205A4.092 4.092 0 0 1 347 53.503V34.055c0-1.546.856-2.96 2.211-3.651z"/>
        </g>
        <g stroke="#FFF" stroke-width=".5" mask="url(#c)">
            <path d="M-34.789 177.939l20-10.206a3.928 3.928 0 0 1 3.578 0l20 10.206A4.092 4.092 0 0 1 11 181.59v19.448c0 1.546-.856 2.96-2.211 3.65l-20 10.206a3.928 3.928 0 0 1-3.578 0l-20-10.205A4.092 4.092 0 0 1-37 201.038V181.59c0-1.546.856-2.96 2.211-3.651zM-10.789 141.171l20-10.205a3.928 3.928 0 0 1 3.578 0l20 10.205A4.092 4.092 0 0 1 35 144.823v19.447c0 1.546-.856 2.96-2.211 3.651l-20 10.206a3.928 3.928 0 0 1-3.578 0l-20-10.206A4.092 4.092 0 0 1-13 164.27v-19.447c0-1.547.856-2.96 2.211-3.652z"/>
            <path d="M13.211 177.939l20-10.206a3.928 3.928 0 0 1 3.578 0l20 10.206A4.092 4.092 0 0 1 59 181.59v19.448c0 1.546-.856 2.96-2.211 3.65l-20 10.206a3.928 3.928 0 0 1-3.578 0l-20-10.205A4.092 4.092 0 0 1 11 201.038V181.59c0-1.546.856-2.96 2.211-3.651zM37.211 141.171l20-10.205a3.928 3.928 0 0 1 3.578 0l20 10.205A4.092 4.092 0 0 1 83 144.823v19.447c0 1.546-.856 2.96-2.211 3.651l-20 10.206a3.928 3.928 0 0 1-3.578 0l-20-10.206A4.092 4.092 0 0 1 35 164.27v-19.447c0-1.547.856-2.96 2.211-3.652z"/>
            <path d="M61.211 177.939l20-10.206a3.928 3.928 0 0 1 3.578 0l20 10.206A4.092 4.092 0 0 1 107 181.59v19.448c0 1.546-.856 2.96-2.211 3.65l-20 10.206a3.928 3.928 0 0 1-3.578 0l-20-10.205A4.092 4.092 0 0 1 59 201.038V181.59c0-1.546.856-2.96 2.211-3.651zM85.211 141.171l20-10.205a3.928 3.928 0 0 1 3.578 0l20 10.205a4.092 4.092 0 0 1 2.211 3.652v19.447c0 1.546-.856 2.96-2.211 3.651l-20 10.206a3.928 3.928 0 0 1-3.578 0l-20-10.206A4.092 4.092 0 0 1 83 164.27v-19.447c0-1.547.856-2.96 2.211-3.652z"/>
            <path d="M109.211 177.939l20-10.206a3.928 3.928 0 0 1 3.578 0l20 10.206A4.092 4.092 0 0 1 155 181.59v19.448c0 1.546-.856 2.96-2.211 3.65l-20 10.206a3.928 3.928 0 0 1-3.578 0l-20-10.205a4.092 4.092 0 0 1-2.211-3.651V181.59c0-1.546.856-2.96 2.211-3.651zM133.211 141.171l20-10.205a3.928 3.928 0 0 1 3.578 0l20 10.205a4.092 4.092 0 0 1 2.211 3.652v19.447c0 1.546-.856 2.96-2.211 3.651l-20 10.206a3.928 3.928 0 0 1-3.578 0l-20-10.206A4.092 4.092 0 0 1 131 164.27v-19.447c0-1.547.856-2.96 2.211-3.652z"/>
            <path d="M157.211 177.939l20-10.206a3.928 3.928 0 0 1 3.578 0l20 10.206A4.092 4.092 0 0 1 203 181.59v19.448c0 1.546-.856 2.96-2.211 3.65l-20 10.206a3.928 3.928 0 0 1-3.578 0l-20-10.205a4.092 4.092 0 0 1-2.211-3.651V181.59c0-1.546.856-2.96 2.211-3.651zM181.211 141.171l20-10.205a3.928 3.928 0 0 1 3.578 0l20 10.205a4.092 4.092 0 0 1 2.211 3.652v19.447c0 1.546-.856 2.96-2.211 3.651l-20 10.206a3.928 3.928 0 0 1-3.578 0l-20-10.206A4.092 4.092 0 0 1 179 164.27v-19.447c0-1.547.856-2.96 2.211-3.652z"/>
            <path d="M205.211 177.939l20-10.206a3.928 3.928 0 0 1 3.578 0l20 10.206A4.092 4.092 0 0 1 251 181.59v19.448c0 1.546-.856 2.96-2.211 3.65l-20 10.206a3.928 3.928 0 0 1-3.578 0l-20-10.205a4.092 4.092 0 0 1-2.211-3.651V181.59c0-1.546.856-2.96 2.211-3.651zM229.211 141.171l20-10.205a3.928 3.928 0 0 1 3.578 0l20 10.205a4.092 4.092 0 0 1 2.211 3.652v19.447c0 1.546-.856 2.96-2.211 3.651l-20 10.206a3.928 3.928 0 0 1-3.578 0l-20-10.206A4.092 4.092 0 0 1 227 164.27v-19.447c0-1.547.856-2.96 2.211-3.652z"/>
            <path d="M253.211 177.939l20-10.206a3.928 3.928 0 0 1 3.578 0l20 10.206A4.092 4.092 0 0 1 299 181.59v19.448c0 1.546-.856 2.96-2.211 3.65l-20 10.206a3.928 3.928 0 0 1-3.578 0l-20-10.205a4.092 4.092 0 0 1-2.211-3.651V181.59c0-1.546.856-2.96 2.211-3.651zM277.211 141.171l20-10.205a3.928 3.928 0 0 1 3.578 0l20 10.205a4.092 4.092 0 0 1 2.211 3.652v19.447c0 1.546-.856 2.96-2.211 3.651l-20 10.206a3.928 3.928 0 0 1-3.578 0l-20-10.206A4.092 4.092 0 0 1 275 164.27v-19.447c0-1.547.856-2.96 2.211-3.652z"/>
            <path d="M301.211 177.939l20-10.206a3.928 3.928 0 0 1 3.578 0l20 10.206A4.092 4.092 0 0 1 347 181.59v19.448c0 1.546-.856 2.96-2.211 3.65l-20 10.206a3.928 3.928 0 0 1-3.578 0l-20-10.205a4.092 4.092 0 0 1-2.211-3.651V181.59c0-1.546.856-2.96 2.211-3.651zM325.211 141.171l20-10.205a3.928 3.928 0 0 1 3.578 0l20 10.205a4.092 4.092 0 0 1 2.211 3.652v19.447c0 1.546-.856 2.96-2.211 3.651l-20 10.206a3.928 3.928 0 0 1-3.578 0l-20-10.206A4.092 4.092 0 0 1 323 164.27v-19.447c0-1.547.856-2.96 2.211-3.652z"/>
            <path d="M349.211 177.939l20-10.206a3.928 3.928 0 0 1 3.578 0l20 10.206A4.092 4.092 0 0 1 395 181.59v19.448c0 1.546-.856 2.96-2.211 3.65l-20 10.206a3.928 3.928 0 0 1-3.578 0l-20-10.205a4.092 4.092 0 0 1-2.211-3.651V181.59c0-1.546.856-2.96 2.211-3.651z"/>
        </g>
        <g stroke="#FFF" stroke-width=".5" mask="url(#c)">
            <path d="M-34.789 251.474l20-10.206a3.928 3.928 0 0 1 3.578 0l20 10.206A4.092 4.092 0 0 1 11 255.125v19.447c0 1.547-.856 2.96-2.211 3.652l-20 10.205a3.928 3.928 0 0 1-3.578 0l-20-10.205A4.092 4.092 0 0 1-37 274.572v-19.447c0-1.546.856-2.96 2.211-3.651zM-10.789 214.706l20-10.205a3.928 3.928 0 0 1 3.578 0l20 10.205A4.092 4.092 0 0 1 35 218.358v19.447c0 1.546-.856 2.96-2.211 3.651l-20 10.206a3.928 3.928 0 0 1-3.578 0l-20-10.206A4.092 4.092 0 0 1-13 237.805v-19.447c0-1.547.856-2.96 2.211-3.652z"/>
            <path d="M13.211 251.474l20-10.206a3.928 3.928 0 0 1 3.578 0l20 10.206A4.092 4.092 0 0 1 59 255.125v19.447c0 1.547-.856 2.96-2.211 3.652l-20 10.205a3.928 3.928 0 0 1-3.578 0l-20-10.205A4.092 4.092 0 0 1 11 274.572v-19.447c0-1.546.856-2.96 2.211-3.651zM37.211 214.706l20-10.205a3.928 3.928 0 0 1 3.578 0l20 10.205A4.092 4.092 0 0 1 83 218.358v19.447c0 1.546-.856 2.96-2.211 3.651l-20 10.206a3.928 3.928 0 0 1-3.578 0l-20-10.206A4.092 4.092 0 0 1 35 237.805v-19.447c0-1.547.856-2.96 2.211-3.652z"/>
            <path d="M61.211 251.474l20-10.206a3.928 3.928 0 0 1 3.578 0l20 10.206a4.092 4.092 0 0 1 2.211 3.651v19.447c0 1.547-.856 2.96-2.211 3.652l-20 10.205a3.928 3.928 0 0 1-3.578 0l-20-10.205A4.092 4.092 0 0 1 59 274.572v-19.447c0-1.546.856-2.96 2.211-3.651zM85.211 214.706l20-10.205a3.928 3.928 0 0 1 3.578 0l20 10.205a4.092 4.092 0 0 1 2.211 3.652v19.447c0 1.546-.856 2.96-2.211 3.651l-20 10.206a3.928 3.928 0 0 1-3.578 0l-20-10.206A4.092 4.092 0 0 1 83 237.805v-19.447c0-1.547.856-2.96 2.211-3.652z"/>
            <path d="M109.211 251.474l20-10.206a3.928 3.928 0 0 1 3.578 0l20 10.206a4.092 4.092 0 0 1 2.211 3.651v19.447c0 1.547-.856 2.96-2.211 3.652l-20 10.205a3.928 3.928 0 0 1-3.578 0l-20-10.205a4.092 4.092 0 0 1-2.211-3.652v-19.447c0-1.546.856-2.96 2.211-3.651zM133.211 214.706l20-10.205a3.928 3.928 0 0 1 3.578 0l20 10.205a4.092 4.092 0 0 1 2.211 3.652v19.447c0 1.546-.856 2.96-2.211 3.651l-20 10.206a3.928 3.928 0 0 1-3.578 0l-20-10.206a4.092 4.092 0 0 1-2.211-3.651v-19.447c0-1.547.856-2.96 2.211-3.652z"/>
            <path d="M157.211 251.474l20-10.206a3.928 3.928 0 0 1 3.578 0l20 10.206a4.092 4.092 0 0 1 2.211 3.651v19.447c0 1.547-.856 2.96-2.211 3.652l-20 10.205a3.928 3.928 0 0 1-3.578 0l-20-10.205a4.092 4.092 0 0 1-2.211-3.652v-19.447c0-1.546.856-2.96 2.211-3.651zM181.211 214.706l20-10.205a3.928 3.928 0 0 1 3.578 0l20 10.205a4.092 4.092 0 0 1 2.211 3.652v19.447c0 1.546-.856 2.96-2.211 3.651l-20 10.206a3.928 3.928 0 0 1-3.578 0l-20-10.206a4.092 4.092 0 0 1-2.211-3.651v-19.447c0-1.547.856-2.96 2.211-3.652z"/>
            <path d="M205.211 251.474l20-10.206a3.928 3.928 0 0 1 3.578 0l20 10.206a4.092 4.092 0 0 1 2.211 3.651v19.447c0 1.547-.856 2.96-2.211 3.652l-20 10.205a3.928 3.928 0 0 1-3.578 0l-20-10.205a4.092 4.092 0 0 1-2.211-3.652v-19.447c0-1.546.856-2.96 2.211-3.651zM229.211 214.706l20-10.205a3.928 3.928 0 0 1 3.578 0l20 10.205a4.092 4.092 0 0 1 2.211 3.652v19.447c0 1.546-.856 2.96-2.211 3.651l-20 10.206a3.928 3.928 0 0 1-3.578 0l-20-10.206a4.092 4.092 0 0 1-2.211-3.651v-19.447c0-1.547.856-2.96 2.211-3.652z"/>
            <path d="M253.211 251.474l20-10.206a3.928 3.928 0 0 1 3.578 0l20 10.206a4.092 4.092 0 0 1 2.211 3.651v19.447c0 1.547-.856 2.96-2.211 3.652l-20 10.205a3.928 3.928 0 0 1-3.578 0l-20-10.205a4.092 4.092 0 0 1-2.211-3.652v-19.447c0-1.546.856-2.96 2.211-3.651zM277.211 214.706l20-10.205a3.928 3.928 0 0 1 3.578 0l20 10.205a4.092 4.092 0 0 1 2.211 3.652v19.447c0 1.546-.856 2.96-2.211 3.651l-20 10.206a3.928 3.928 0 0 1-3.578 0l-20-10.206a4.092 4.092 0 0 1-2.211-3.651v-19.447c0-1.547.856-2.96 2.211-3.652z"/>
            <path d="M301.211 251.474l20-10.206a3.928 3.928 0 0 1 3.578 0l20 10.206a4.092 4.092 0 0 1 2.211 3.651v19.447c0 1.547-.856 2.96-2.211 3.652l-20 10.205a3.928 3.928 0 0 1-3.578 0l-20-10.205a4.092 4.092 0 0 1-2.211-3.652v-19.447c0-1.546.856-2.96 2.211-3.651zM325.211 214.706l20-10.205a3.928 3.928 0 0 1 3.578 0l20 10.205a4.092 4.092 0 0 1 2.211 3.652v19.447c0 1.546-.856 2.96-2.211 3.651l-20 10.206a3.928 3.928 0 0 1-3.578 0l-20-10.206a4.092 4.092 0 0 1-2.211-3.651v-19.447c0-1.547.856-2.96 2.211-3.652z"/>
            <path d="M349.211 251.474l20-10.206a3.928 3.928 0 0 1 3.578 0l20 10.206a4.092 4.092 0 0 1 2.211 3.651v19.447c0 1.547-.856 2.96-2.211 3.652l-20 10.205a3.928 3.928 0 0 1-3.578 0l-20-10.205a4.092 4.092 0 0 1-2.211-3.652v-19.447c0-1.546.856-2.96 2.211-3.651z"/>
        </g>
        <g stroke="#FFF" stroke-width=".5" mask="url(#c)">
            <path d="M-34.789 325.009l20-10.206a3.928 3.928 0 0 1 3.578 0l20 10.206A4.092 4.092 0 0 1 11 328.66v19.447c0 1.547-.856 2.96-2.211 3.652l-20 10.205a3.928 3.928 0 0 1-3.578 0l-20-10.205A4.092 4.092 0 0 1-37 348.107V328.66c0-1.546.856-2.96 2.211-3.651zM-10.789 288.241l20-10.205a3.928 3.928 0 0 1 3.578 0l20 10.205A4.092 4.092 0 0 1 35 291.893v19.447c0 1.546-.856 2.96-2.211 3.651l-20 10.206a3.928 3.928 0 0 1-3.578 0l-20-10.206A4.092 4.092 0 0 1-13 311.34v-19.447c0-1.547.856-2.96 2.211-3.652z"/>
            <path d="M13.211 325.009l20-10.206a3.928 3.928 0 0 1 3.578 0l20 10.206A4.092 4.092 0 0 1 59 328.66v19.447c0 1.547-.856 2.96-2.211 3.652l-20 10.205a3.928 3.928 0 0 1-3.578 0l-20-10.205A4.092 4.092 0 0 1 11 348.107V328.66c0-1.546.856-2.96 2.211-3.651zM37.211 288.241l20-10.205a3.928 3.928 0 0 1 3.578 0l20 10.205A4.092 4.092 0 0 1 83 291.893v19.447c0 1.546-.856 2.96-2.211 3.651l-20 10.206a3.928 3.928 0 0 1-3.578 0l-20-10.206A4.092 4.092 0 0 1 35 311.34v-19.447c0-1.547.856-2.96 2.211-3.652z"/>
            <path d="M61.211 325.009l20-10.206a3.928 3.928 0 0 1 3.578 0l20 10.206A4.092 4.092 0 0 1 107 328.66v19.447c0 1.547-.856 2.96-2.211 3.652l-20 10.205a3.928 3.928 0 0 1-3.578 0l-20-10.205A4.092 4.092 0 0 1 59 348.107V328.66c0-1.546.856-2.96 2.211-3.651zM85.211 288.241l20-10.205a3.928 3.928 0 0 1 3.578 0l20 10.205a4.092 4.092 0 0 1 2.211 3.652v19.447c0 1.546-.856 2.96-2.211 3.651l-20 10.206a3.928 3.928 0 0 1-3.578 0l-20-10.206A4.092 4.092 0 0 1 83 311.34v-19.447c0-1.547.856-2.96 2.211-3.652z"/>
            <path d="M109.211 325.009l20-10.206a3.928 3.928 0 0 1 3.578 0l20 10.206A4.092 4.092 0 0 1 155 328.66v19.447c0 1.547-.856 2.96-2.211 3.652l-20 10.205a3.928 3.928 0 0 1-3.578 0l-20-10.205a4.092 4.092 0 0 1-2.211-3.652V328.66c0-1.546.856-2.96 2.211-3.651zM133.211 288.241l20-10.205a3.928 3.928 0 0 1 3.578 0l20 10.205a4.092 4.092 0 0 1 2.211 3.652v19.447c0 1.546-.856 2.96-2.211 3.651l-20 10.206a3.928 3.928 0 0 1-3.578 0l-20-10.206A4.092 4.092 0 0 1 131 311.34v-19.447c0-1.547.856-2.96 2.211-3.652z"/>
            <path d="M157.211 325.009l20-10.206a3.928 3.928 0 0 1 3.578 0l20 10.206A4.092 4.092 0 0 1 203 328.66v19.447c0 1.547-.856 2.96-2.211 3.652l-20 10.205a3.928 3.928 0 0 1-3.578 0l-20-10.205a4.092 4.092 0 0 1-2.211-3.652V328.66c0-1.546.856-2.96 2.211-3.651zM181.211 288.241l20-10.205a3.928 3.928 0 0 1 3.578 0l20 10.205a4.092 4.092 0 0 1 2.211 3.652v19.447c0 1.546-.856 2.96-2.211 3.651l-20 10.206a3.928 3.928 0 0 1-3.578 0l-20-10.206A4.092 4.092 0 0 1 179 311.34v-19.447c0-1.547.856-2.96 2.211-3.652z"/>
            <path d="M205.211 325.009l20-10.206a3.928 3.928 0 0 1 3.578 0l20 10.206A4.092 4.092 0 0 1 251 328.66v19.447c0 1.547-.856 2.96-2.211 3.652l-20 10.205a3.928 3.928 0 0 1-3.578 0l-20-10.205a4.092 4.092 0 0 1-2.211-3.652V328.66c0-1.546.856-2.96 2.211-3.651zM229.211 288.241l20-10.205a3.928 3.928 0 0 1 3.578 0l20 10.205a4.092 4.092 0 0 1 2.211 3.652v19.447c0 1.546-.856 2.96-2.211 3.651l-20 10.206a3.928 3.928 0 0 1-3.578 0l-20-10.206A4.092 4.092 0 0 1 227 311.34v-19.447c0-1.547.856-2.96 2.211-3.652z"/>
            <path d="M253.211 325.009l20-10.206a3.928 3.928 0 0 1 3.578 0l20 10.206A4.092 4.092 0 0 1 299 328.66v19.447c0 1.547-.856 2.96-2.211 3.652l-20 10.205a3.928 3.928 0 0 1-3.578 0l-20-10.205a4.092 4.092 0 0 1-2.211-3.652V328.66c0-1.546.856-2.96 2.211-3.651zM277.211 288.241l20-10.205a3.928 3.928 0 0 1 3.578 0l20 10.205a4.092 4.092 0 0 1 2.211 3.652v19.447c0 1.546-.856 2.96-2.211 3.651l-20 10.206a3.928 3.928 0 0 1-3.578 0l-20-10.206A4.092 4.092 0 0 1 275 311.34v-19.447c0-1.547.856-2.96 2.211-3.652z"/>
            <path d="M301.211 325.009l20-10.206a3.928 3.928 0 0 1 3.578 0l20 10.206A4.092 4.092 0 0 1 347 328.66v19.447c0 1.547-.856 2.96-2.211 3.652l-20 10.205a3.928 3.928 0 0 1-3.578 0l-20-10.205a4.092 4.092 0 0 1-2.211-3.652V328.66c0-1.546.856-2.96 2.211-3.651zM325.211 288.241l20-10.205a3.928 3.928 0 0 1 3.578 0l20 10.205a4.092 4.092 0 0 1 2.211 3.652v19.447c0 1.546-.856 2.96-2.211 3.651l-20 10.206a3.928 3.928 0 0 1-3.578 0l-20-10.206A4.092 4.092 0 0 1 323 311.34v-19.447c0-1.547.856-2.96 2.211-3.652z"/>
            <path d="M349.211 325.009l20-10.206a3.928 3.928 0 0 1 3.578 0l20 10.206A4.092 4.092 0 0 1 395 328.66v19.447c0 1.547-.856 2.96-2.211 3.652l-20 10.205a3.928 3.928 0 0 1-3.578 0l-20-10.205a4.092 4.092 0 0 1-2.211-3.652V328.66c0-1.546.856-2.96 2.211-3.651z"/>
        </g>
        <g stroke="#FFF" stroke-width=".5" mask="url(#c)">
            <path d="M-34.789 398.544l20-10.206a3.928 3.928 0 0 1 3.578 0l20 10.206A4.092 4.092 0 0 1 11 402.195v19.447c0 1.547-.856 2.96-2.211 3.652l-20 10.205a3.928 3.928 0 0 1-3.578 0l-20-10.205A4.092 4.092 0 0 1-37 421.642v-19.447c0-1.546.856-2.96 2.211-3.651zM-10.789 361.776l20-10.205a3.928 3.928 0 0 1 3.578 0l20 10.205A4.092 4.092 0 0 1 35 365.428v19.447c0 1.546-.856 2.96-2.211 3.651l-20 10.206a3.928 3.928 0 0 1-3.578 0l-20-10.206A4.092 4.092 0 0 1-13 384.875v-19.447c0-1.547.856-2.96 2.211-3.652z"/>
            <path d="M13.211 398.544l20-10.206a3.928 3.928 0 0 1 3.578 0l20 10.206A4.092 4.092 0 0 1 59 402.195v19.447c0 1.547-.856 2.96-2.211 3.652l-20 10.205a3.928 3.928 0 0 1-3.578 0l-20-10.205A4.092 4.092 0 0 1 11 421.642v-19.447c0-1.546.856-2.96 2.211-3.651zM37.211 361.776l20-10.205a3.928 3.928 0 0 1 3.578 0l20 10.205A4.092 4.092 0 0 1 83 365.428v19.447c0 1.546-.856 2.96-2.211 3.651l-20 10.206a3.928 3.928 0 0 1-3.578 0l-20-10.206A4.092 4.092 0 0 1 35 384.875v-19.447c0-1.547.856-2.96 2.211-3.652z"/>
            <path d="M61.211 398.544l20-10.206a3.928 3.928 0 0 1 3.578 0l20 10.206a4.092 4.092 0 0 1 2.211 3.651v19.447c0 1.547-.856 2.96-2.211 3.652l-20 10.205a3.928 3.928 0 0 1-3.578 0l-20-10.205A4.092 4.092 0 0 1 59 421.642v-19.447c0-1.546.856-2.96 2.211-3.651zM85.211 361.776l20-10.205a3.928 3.928 0 0 1 3.578 0l20 10.205a4.092 4.092 0 0 1 2.211 3.652v19.447c0 1.546-.856 2.96-2.211 3.651l-20 10.206a3.928 3.928 0 0 1-3.578 0l-20-10.206A4.092 4.092 0 0 1 83 384.875v-19.447c0-1.547.856-2.96 2.211-3.652z"/>
            <path d="M109.211 398.544l20-10.206a3.928 3.928 0 0 1 3.578 0l20 10.206a4.092 4.092 0 0 1 2.211 3.651v19.447c0 1.547-.856 2.96-2.211 3.652l-20 10.205a3.928 3.928 0 0 1-3.578 0l-20-10.205a4.092 4.092 0 0 1-2.211-3.652v-19.447c0-1.546.856-2.96 2.211-3.651zM133.211 361.776l20-10.205a3.928 3.928 0 0 1 3.578 0l20 10.205a4.092 4.092 0 0 1 2.211 3.652v19.447c0 1.546-.856 2.96-2.211 3.651l-20 10.206a3.928 3.928 0 0 1-3.578 0l-20-10.206a4.092 4.092 0 0 1-2.211-3.651v-19.447c0-1.547.856-2.96 2.211-3.652z"/>
            <path d="M157.211 398.544l20-10.206a3.928 3.928 0 0 1 3.578 0l20 10.206a4.092 4.092 0 0 1 2.211 3.651v19.447c0 1.547-.856 2.96-2.211 3.652l-20 10.205a3.928 3.928 0 0 1-3.578 0l-20-10.205a4.092 4.092 0 0 1-2.211-3.652v-19.447c0-1.546.856-2.96 2.211-3.651zM181.211 361.776l20-10.205a3.928 3.928 0 0 1 3.578 0l20 10.205a4.092 4.092 0 0 1 2.211 3.652v19.447c0 1.546-.856 2.96-2.211 3.651l-20 10.206a3.928 3.928 0 0 1-3.578 0l-20-10.206a4.092 4.092 0 0 1-2.211-3.651v-19.447c0-1.547.856-2.96 2.211-3.652z"/>
            <path d="M205.211 398.544l20-10.206a3.928 3.928 0 0 1 3.578 0l20 10.206a4.092 4.092 0 0 1 2.211 3.651v19.447c0 1.547-.856 2.96-2.211 3.652l-20 10.205a3.928 3.928 0 0 1-3.578 0l-20-10.205a4.092 4.092 0 0 1-2.211-3.652v-19.447c0-1.546.856-2.96 2.211-3.651zM229.211 361.776l20-10.205a3.928 3.928 0 0 1 3.578 0l20 10.205a4.092 4.092 0 0 1 2.211 3.652v19.447c0 1.546-.856 2.96-2.211 3.651l-20 10.206a3.928 3.928 0 0 1-3.578 0l-20-10.206a4.092 4.092 0 0 1-2.211-3.651v-19.447c0-1.547.856-2.96 2.211-3.652z"/>
            <path d="M253.211 398.544l20-10.206a3.928 3.928 0 0 1 3.578 0l20 10.206a4.092 4.092 0 0 1 2.211 3.651v19.447c0 1.547-.856 2.96-2.211 3.652l-20 10.205a3.928 3.928 0 0 1-3.578 0l-20-10.205a4.092 4.092 0 0 1-2.211-3.652v-19.447c0-1.546.856-2.96 2.211-3.651zM277.211 361.776l20-10.205a3.928 3.928 0 0 1 3.578 0l20 10.205a4.092 4.092 0 0 1 2.211 3.652v19.447c0 1.546-.856 2.96-2.211 3.651l-20 10.206a3.928 3.928 0 0 1-3.578 0l-20-10.206a4.092 4.092 0 0 1-2.211-3.651v-19.447c0-1.547.856-2.96 2.211-3.652z"/>
            <path d="M301.211 398.544l20-10.206a3.928 3.928 0 0 1 3.578 0l20 10.206a4.092 4.092 0 0 1 2.211 3.651v19.447c0 1.547-.856 2.96-2.211 3.652l-20 10.205a3.928 3.928 0 0 1-3.578 0l-20-10.205a4.092 4.092 0 0 1-2.211-3.652v-19.447c0-1.546.856-2.96 2.211-3.651zM325.211 361.776l20-10.205a3.928 3.928 0 0 1 3.578 0l20 10.205a4.092 4.092 0 0 1 2.211 3.652v19.447c0 1.546-.856 2.96-2.211 3.651l-20 10.206a3.928 3.928 0 0 1-3.578 0l-20-10.206a4.092 4.092 0 0 1-2.211-3.651v-19.447c0-1.547.856-2.96 2.211-3.652z"/>
            <path d="M349.211 398.544l20-10.206a3.928 3.928 0 0 1 3.578 0l20 10.206a4.092 4.092 0 0 1 2.211 3.651v19.447c0 1.547-.856 2.96-2.211 3.652l-20 10.205a3.928 3.928 0 0 1-3.578 0l-20-10.205a4.092 4.092 0 0 1-2.211-3.652v-19.447c0-1.546.856-2.96 2.211-3.651z"/>
        </g>
        <g stroke="#FFF" stroke-width=".5" mask="url(#c)">
            <path d="M-34.789 472.079l20-10.206a3.928 3.928 0 0 1 3.578 0l20 10.206A4.092 4.092 0 0 1 11 475.73v19.447c0 1.547-.856 2.96-2.211 3.652l-20 10.205a3.928 3.928 0 0 1-3.578 0l-20-10.205A4.092 4.092 0 0 1-37 495.177V475.73c0-1.546.856-2.96 2.211-3.651zM-10.789 435.311l20-10.205a3.928 3.928 0 0 1 3.578 0l20 10.205A4.092 4.092 0 0 1 35 438.962v19.448c0 1.546-.856 2.96-2.211 3.651l-20 10.206a3.928 3.928 0 0 1-3.578 0l-20-10.206A4.092 4.092 0 0 1-13 458.41v-19.448c0-1.546.856-2.96 2.211-3.65z"/>
            <path d="M13.211 472.079l20-10.206a3.928 3.928 0 0 1 3.578 0l20 10.206A4.092 4.092 0 0 1 59 475.73v19.447c0 1.547-.856 2.96-2.211 3.652l-20 10.205a3.928 3.928 0 0 1-3.578 0l-20-10.205A4.092 4.092 0 0 1 11 495.177V475.73c0-1.546.856-2.96 2.211-3.651zM37.211 435.311l20-10.205a3.928 3.928 0 0 1 3.578 0l20 10.205A4.092 4.092 0 0 1 83 438.962v19.448c0 1.546-.856 2.96-2.211 3.651l-20 10.206a3.928 3.928 0 0 1-3.578 0l-20-10.206A4.092 4.092 0 0 1 35 458.41v-19.448c0-1.546.856-2.96 2.211-3.65z"/>
            <path d="M61.211 472.079l20-10.206a3.928 3.928 0 0 1 3.578 0l20 10.206A4.092 4.092 0 0 1 107 475.73v19.447c0 1.547-.856 2.96-2.211 3.652l-20 10.205a3.928 3.928 0 0 1-3.578 0l-20-10.205A4.092 4.092 0 0 1 59 495.177V475.73c0-1.546.856-2.96 2.211-3.651zM85.211 435.311l20-10.205a3.928 3.928 0 0 1 3.578 0l20 10.205a4.092 4.092 0 0 1 2.211 3.651v19.448c0 1.546-.856 2.96-2.211 3.651l-20 10.206a3.928 3.928 0 0 1-3.578 0l-20-10.206A4.092 4.092 0 0 1 83 458.41v-19.448c0-1.546.856-2.96 2.211-3.65z"/>
            <path d="M109.211 472.079l20-10.206a3.928 3.928 0 0 1 3.578 0l20 10.206A4.092 4.092 0 0 1 155 475.73v19.447c0 1.547-.856 2.96-2.211 3.652l-20 10.205a3.928 3.928 0 0 1-3.578 0l-20-10.205a4.092 4.092 0 0 1-2.211-3.652V475.73c0-1.546.856-2.96 2.211-3.651zM133.211 435.311l20-10.205a3.928 3.928 0 0 1 3.578 0l20 10.205a4.092 4.092 0 0 1 2.211 3.651v19.448c0 1.546-.856 2.96-2.211 3.651l-20 10.206a3.928 3.928 0 0 1-3.578 0l-20-10.206A4.092 4.092 0 0 1 131 458.41v-19.448c0-1.546.856-2.96 2.211-3.65z"/>
            <path d="M157.211 472.079l20-10.206a3.928 3.928 0 0 1 3.578 0l20 10.206A4.092 4.092 0 0 1 203 475.73v19.447c0 1.547-.856 2.96-2.211 3.652l-20 10.205a3.928 3.928 0 0 1-3.578 0l-20-10.205a4.092 4.092 0 0 1-2.211-3.652V475.73c0-1.546.856-2.96 2.211-3.651zM181.211 435.311l20-10.205a3.928 3.928 0 0 1 3.578 0l20 10.205a4.092 4.092 0 0 1 2.211 3.651v19.448c0 1.546-.856 2.96-2.211 3.651l-20 10.206a3.928 3.928 0 0 1-3.578 0l-20-10.206A4.092 4.092 0 0 1 179 458.41v-19.448c0-1.546.856-2.96 2.211-3.65z"/>
            <path d="M205.211 472.079l20-10.206a3.928 3.928 0 0 1 3.578 0l20 10.206A4.092 4.092 0 0 1 251 475.73v19.447c0 1.547-.856 2.96-2.211 3.652l-20 10.205a3.928 3.928 0 0 1-3.578 0l-20-10.205a4.092 4.092 0 0 1-2.211-3.652V475.73c0-1.546.856-2.96 2.211-3.651zM229.211 435.311l20-10.205a3.928 3.928 0 0 1 3.578 0l20 10.205a4.092 4.092 0 0 1 2.211 3.651v19.448c0 1.546-.856 2.96-2.211 3.651l-20 10.206a3.928 3.928 0 0 1-3.578 0l-20-10.206A4.092 4.092 0 0 1 227 458.41v-19.448c0-1.546.856-2.96 2.211-3.65z"/>
            <path d="M253.211 472.079l20-10.206a3.928 3.928 0 0 1 3.578 0l20 10.206A4.092 4.092 0 0 1 299 475.73v19.447c0 1.547-.856 2.96-2.211 3.652l-20 10.205a3.928 3.928 0 0 1-3.578 0l-20-10.205a4.092 4.092 0 0 1-2.211-3.652V475.73c0-1.546.856-2.96 2.211-3.651zM277.211 435.311l20-10.205a3.928 3.928 0 0 1 3.578 0l20 10.205a4.092 4.092 0 0 1 2.211 3.651v19.448c0 1.546-.856 2.96-2.211 3.651l-20 10.206a3.928 3.928 0 0 1-3.578 0l-20-10.206A4.092 4.092 0 0 1 275 458.41v-19.448c0-1.546.856-2.96 2.211-3.65z"/>
            <path d="M301.211 472.079l20-10.206a3.928 3.928 0 0 1 3.578 0l20 10.206A4.092 4.092 0 0 1 347 475.73v19.447c0 1.547-.856 2.96-2.211 3.652l-20 10.205a3.928 3.928 0 0 1-3.578 0l-20-10.205a4.092 4.092 0 0 1-2.211-3.652V475.73c0-1.546.856-2.96 2.211-3.651zM325.211 435.311l20-10.205a3.928 3.928 0 0 1 3.578 0l20 10.205a4.092 4.092 0 0 1 2.211 3.651v19.448c0 1.546-.856 2.96-2.211 3.651l-20 10.206a3.928 3.928 0 0 1-3.578 0l-20-10.206A4.092 4.092 0 0 1 323 458.41v-19.448c0-1.546.856-2.96 2.211-3.65z"/>
            <path d="M349.211 472.079l20-10.206a3.928 3.928 0 0 1 3.578 0l20 10.206A4.092 4.092 0 0 1 395 475.73v19.447c0 1.547-.856 2.96-2.211 3.652l-20 10.205a3.928 3.928 0 0 1-3.578 0l-20-10.205a4.092 4.092 0 0 1-2.211-3.652V475.73c0-1.546.856-2.96 2.211-3.651z"/>
        </g>
        <g stroke="#FFF" stroke-width=".5" mask="url(#c)">
            <path d="M-34.789 545.404l20-10.206a3.928 3.928 0 0 1 3.578 0l20 10.206A4.092 4.092 0 0 1 11 549.055v19.448c0 1.546-.856 2.96-2.211 3.65l-20 10.206a3.928 3.928 0 0 1-3.578 0l-20-10.205A4.092 4.092 0 0 1-37 568.503v-19.448c0-1.546.856-2.96 2.211-3.651zM-10.789 508.636l20-10.205a3.928 3.928 0 0 1 3.578 0l20 10.205A4.092 4.092 0 0 1 35 512.288v19.447c0 1.546-.856 2.96-2.211 3.651l-20 10.206a3.928 3.928 0 0 1-3.578 0l-20-10.206a4.092 4.092 0 0 1-2.211-3.65v-19.448c0-1.546.856-2.96 2.211-3.652z"/>
            <path d="M13.211 545.404l20-10.206a3.928 3.928 0 0 1 3.578 0l20 10.206A4.092 4.092 0 0 1 59 549.055v19.448c0 1.546-.856 2.96-2.211 3.65l-20 10.206a3.928 3.928 0 0 1-3.578 0l-20-10.205A4.092 4.092 0 0 1 11 568.503v-19.448c0-1.546.856-2.96 2.211-3.651zM37.211 508.636l20-10.205a3.928 3.928 0 0 1 3.578 0l20 10.205A4.092 4.092 0 0 1 83 512.288v19.447c0 1.546-.856 2.96-2.211 3.651l-20 10.206a3.928 3.928 0 0 1-3.578 0l-20-10.206a4.092 4.092 0 0 1-2.211-3.65v-19.448c0-1.546.856-2.96 2.211-3.652z"/>
            <path d="M61.211 545.404l20-10.206a3.928 3.928 0 0 1 3.578 0l20 10.206a4.092 4.092 0 0 1 2.211 3.651v19.448c0 1.546-.856 2.96-2.211 3.65l-20 10.206a3.928 3.928 0 0 1-3.578 0l-20-10.205A4.092 4.092 0 0 1 59 568.503v-19.448c0-1.546.856-2.96 2.211-3.651zM85.211 508.636l20-10.205a3.928 3.928 0 0 1 3.578 0l20 10.205a4.092 4.092 0 0 1 2.211 3.652v19.447c0 1.546-.856 2.96-2.211 3.651l-20 10.206a3.928 3.928 0 0 1-3.578 0l-20-10.206a4.092 4.092 0 0 1-2.211-3.65v-19.448c0-1.546.856-2.96 2.211-3.652z"/>
            <path d="M109.211 545.404l20-10.206a3.928 3.928 0 0 1 3.578 0l20 10.206a4.092 4.092 0 0 1 2.211 3.651v19.448c0 1.546-.856 2.96-2.211 3.65l-20 10.206a3.928 3.928 0 0 1-3.578 0l-20-10.205a4.092 4.092 0 0 1-2.211-3.651v-19.448c0-1.546.856-2.96 2.211-3.651zM133.211 508.636l20-10.205a3.928 3.928 0 0 1 3.578 0l20 10.205a4.092 4.092 0 0 1 2.211 3.652v19.447c0 1.546-.856 2.96-2.211 3.651l-20 10.206a3.928 3.928 0 0 1-3.578 0l-20-10.206a4.092 4.092 0 0 1-2.211-3.65v-19.448c0-1.546.856-2.96 2.211-3.652z"/>
            <path d="M157.211 545.404l20-10.206a3.928 3.928 0 0 1 3.578 0l20 10.206a4.092 4.092 0 0 1 2.211 3.651v19.448c0 1.546-.856 2.96-2.211 3.65l-20 10.206a3.928 3.928 0 0 1-3.578 0l-20-10.205a4.092 4.092 0 0 1-2.211-3.651v-19.448c0-1.546.856-2.96 2.211-3.651zM181.211 508.636l20-10.205a3.928 3.928 0 0 1 3.578 0l20 10.205a4.092 4.092 0 0 1 2.211 3.652v19.447c0 1.546-.856 2.96-2.211 3.651l-20 10.206a3.928 3.928 0 0 1-3.578 0l-20-10.206a4.092 4.092 0 0 1-2.211-3.65v-19.448c0-1.546.856-2.96 2.211-3.652z"/>
            <path d="M205.211 545.404l20-10.206a3.928 3.928 0 0 1 3.578 0l20 10.206a4.092 4.092 0 0 1 2.211 3.651v19.448c0 1.546-.856 2.96-2.211 3.65l-20 10.206a3.928 3.928 0 0 1-3.578 0l-20-10.205a4.092 4.092 0 0 1-2.211-3.651v-19.448c0-1.546.856-2.96 2.211-3.651zM229.211 508.636l20-10.205a3.928 3.928 0 0 1 3.578 0l20 10.205a4.092 4.092 0 0 1 2.211 3.652v19.447c0 1.546-.856 2.96-2.211 3.651l-20 10.206a3.928 3.928 0 0 1-3.578 0l-20-10.206a4.092 4.092 0 0 1-2.211-3.65v-19.448c0-1.546.856-2.96 2.211-3.652z"/>
            <path d="M253.211 545.404l20-10.206a3.928 3.928 0 0 1 3.578 0l20 10.206a4.092 4.092 0 0 1 2.211 3.651v19.448c0 1.546-.856 2.96-2.211 3.65l-20 10.206a3.928 3.928 0 0 1-3.578 0l-20-10.205a4.092 4.092 0 0 1-2.211-3.651v-19.448c0-1.546.856-2.96 2.211-3.651zM277.211 508.636l20-10.205a3.928 3.928 0 0 1 3.578 0l20 10.205a4.092 4.092 0 0 1 2.211 3.652v19.447c0 1.546-.856 2.96-2.211 3.651l-20 10.206a3.928 3.928 0 0 1-3.578 0l-20-10.206a4.092 4.092 0 0 1-2.211-3.65v-19.448c0-1.546.856-2.96 2.211-3.652z"/>
            <path d="M301.211 545.404l20-10.206a3.928 3.928 0 0 1 3.578 0l20 10.206a4.092 4.092 0 0 1 2.211 3.651v19.448c0 1.546-.856 2.96-2.211 3.65l-20 10.206a3.928 3.928 0 0 1-3.578 0l-20-10.205a4.092 4.092 0 0 1-2.211-3.651v-19.448c0-1.546.856-2.96 2.211-3.651zM325.211 508.636l20-10.205a3.928 3.928 0 0 1 3.578 0l20 10.205a4.092 4.092 0 0 1 2.211 3.652v19.447c0 1.546-.856 2.96-2.211 3.651l-20 10.206a3.928 3.928 0 0 1-3.578 0l-20-10.206a4.092 4.092 0 0 1-2.211-3.65v-19.448c0-1.546.856-2.96 2.211-3.652z"/>
            <path d="M349.211 545.404l20-10.206a3.928 3.928 0 0 1 3.578 0l20 10.206a4.092 4.092 0 0 1 2.211 3.651v19.448c0 1.546-.856 2.96-2.211 3.65l-20 10.206a3.928 3.928 0 0 1-3.578 0l-20-10.205a4.092 4.092 0 0 1-2.211-3.651v-19.448c0-1.546.856-2.96 2.211-3.651z"/>
        </g>
        <g stroke="#FFF" stroke-width=".5" mask="url(#c)">
            <path d="M-34.789 619.404l20-10.206a3.928 3.928 0 0 1 3.578 0l20 10.206A4.092 4.092 0 0 1 11 623.055v19.448c0 1.546-.856 2.96-2.211 3.65l-20 10.206a3.928 3.928 0 0 1-3.578 0l-20-10.205A4.092 4.092 0 0 1-37 642.503v-19.448c0-1.546.856-2.96 2.211-3.651zM-10.789 582.636l20-10.205a3.928 3.928 0 0 1 3.578 0l20 10.205A4.092 4.092 0 0 1 35 586.288v19.447c0 1.546-.856 2.96-2.211 3.651l-20 10.206a3.928 3.928 0 0 1-3.578 0l-20-10.206a4.092 4.092 0 0 1-2.211-3.65v-19.448c0-1.546.856-2.96 2.211-3.652z"/>
            <path d="M13.211 619.404l20-10.206a3.928 3.928 0 0 1 3.578 0l20 10.206A4.092 4.092 0 0 1 59 623.055v19.448c0 1.546-.856 2.96-2.211 3.65l-20 10.206a3.928 3.928 0 0 1-3.578 0l-20-10.205A4.092 4.092 0 0 1 11 642.503v-19.448c0-1.546.856-2.96 2.211-3.651zM37.211 582.636l20-10.205a3.928 3.928 0 0 1 3.578 0l20 10.205A4.092 4.092 0 0 1 83 586.288v19.447c0 1.546-.856 2.96-2.211 3.651l-20 10.206a3.928 3.928 0 0 1-3.578 0l-20-10.206a4.092 4.092 0 0 1-2.211-3.65v-19.448c0-1.546.856-2.96 2.211-3.652z"/>
            <path d="M61.211 619.404l20-10.206a3.928 3.928 0 0 1 3.578 0l20 10.206a4.092 4.092 0 0 1 2.211 3.651v19.448c0 1.546-.856 2.96-2.211 3.65l-20 10.206a3.928 3.928 0 0 1-3.578 0l-20-10.205A4.092 4.092 0 0 1 59 642.503v-19.448c0-1.546.856-2.96 2.211-3.651zM85.211 582.636l20-10.205a3.928 3.928 0 0 1 3.578 0l20 10.205a4.092 4.092 0 0 1 2.211 3.652v19.447c0 1.546-.856 2.96-2.211 3.651l-20 10.206a3.928 3.928 0 0 1-3.578 0l-20-10.206a4.092 4.092 0 0 1-2.211-3.65v-19.448c0-1.546.856-2.96 2.211-3.652z"/>
            <path d="M109.211 619.404l20-10.206a3.928 3.928 0 0 1 3.578 0l20 10.206a4.092 4.092 0 0 1 2.211 3.651v19.448c0 1.546-.856 2.96-2.211 3.65l-20 10.206a3.928 3.928 0 0 1-3.578 0l-20-10.205a4.092 4.092 0 0 1-2.211-3.651v-19.448c0-1.546.856-2.96 2.211-3.651zM133.211 582.636l20-10.205a3.928 3.928 0 0 1 3.578 0l20 10.205a4.092 4.092 0 0 1 2.211 3.652v19.447c0 1.546-.856 2.96-2.211 3.651l-20 10.206a3.928 3.928 0 0 1-3.578 0l-20-10.206a4.092 4.092 0 0 1-2.211-3.65v-19.448c0-1.546.856-2.96 2.211-3.652z"/>
            <path d="M157.211 619.404l20-10.206a3.928 3.928 0 0 1 3.578 0l20 10.206a4.092 4.092 0 0 1 2.211 3.651v19.448c0 1.546-.856 2.96-2.211 3.65l-20 10.206a3.928 3.928 0 0 1-3.578 0l-20-10.205a4.092 4.092 0 0 1-2.211-3.651v-19.448c0-1.546.856-2.96 2.211-3.651zM181.211 582.636l20-10.205a3.928 3.928 0 0 1 3.578 0l20 10.205a4.092 4.092 0 0 1 2.211 3.652v19.447c0 1.546-.856 2.96-2.211 3.651l-20 10.206a3.928 3.928 0 0 1-3.578 0l-20-10.206a4.092 4.092 0 0 1-2.211-3.65v-19.448c0-1.546.856-2.96 2.211-3.652z"/>
            <path d="M205.211 619.404l20-10.206a3.928 3.928 0 0 1 3.578 0l20 10.206a4.092 4.092 0 0 1 2.211 3.651v19.448c0 1.546-.856 2.96-2.211 3.65l-20 10.206a3.928 3.928 0 0 1-3.578 0l-20-10.205a4.092 4.092 0 0 1-2.211-3.651v-19.448c0-1.546.856-2.96 2.211-3.651zM229.211 582.636l20-10.205a3.928 3.928 0 0 1 3.578 0l20 10.205a4.092 4.092 0 0 1 2.211 3.652v19.447c0 1.546-.856 2.96-2.211 3.651l-20 10.206a3.928 3.928 0 0 1-3.578 0l-20-10.206a4.092 4.092 0 0 1-2.211-3.65v-19.448c0-1.546.856-2.96 2.211-3.652z"/>
            <path d="M253.211 619.404l20-10.206a3.928 3.928 0 0 1 3.578 0l20 10.206a4.092 4.092 0 0 1 2.211 3.651v19.448c0 1.546-.856 2.96-2.211 3.65l-20 10.206a3.928 3.928 0 0 1-3.578 0l-20-10.205a4.092 4.092 0 0 1-2.211-3.651v-19.448c0-1.546.856-2.96 2.211-3.651zM277.211 582.636l20-10.205a3.928 3.928 0 0 1 3.578 0l20 10.205a4.092 4.092 0 0 1 2.211 3.652v19.447c0 1.546-.856 2.96-2.211 3.651l-20 10.206a3.928 3.928 0 0 1-3.578 0l-20-10.206a4.092 4.092 0 0 1-2.211-3.65v-19.448c0-1.546.856-2.96 2.211-3.652z"/>
            <path d="M301.211 619.404l20-10.206a3.928 3.928 0 0 1 3.578 0l20 10.206a4.092 4.092 0 0 1 2.211 3.651v19.448c0 1.546-.856 2.96-2.211 3.65l-20 10.206a3.928 3.928 0 0 1-3.578 0l-20-10.205a4.092 4.092 0 0 1-2.211-3.651v-19.448c0-1.546.856-2.96 2.211-3.651zM325.211 582.636l20-10.205a3.928 3.928 0 0 1 3.578 0l20 10.205a4.092 4.092 0 0 1 2.211 3.652v19.447c0 1.546-.856 2.96-2.211 3.651l-20 10.206a3.928 3.928 0 0 1-3.578 0l-20-10.206a4.092 4.092 0 0 1-2.211-3.65v-19.448c0-1.546.856-2.96 2.211-3.652z"/>
            <path d="M349.211 619.404l20-10.206a3.928 3.928 0 0 1 3.578 0l20 10.206a4.092 4.092 0 0 1 2.211 3.651v19.448c0 1.546-.856 2.96-2.211 3.65l-20 10.206a3.928 3.928 0 0 1-3.578 0l-20-10.205a4.092 4.092 0 0 1-2.211-3.651v-19.448c0-1.546.856-2.96 2.211-3.651z"/>
        </g>
    </g>
</svg>
