<svg xmlns="http://www.w3.org/2000/svg" xmlns:xlink="http://www.w3.org/1999/xlink" width="40" height="40" viewBox="0 0 40 40">
    <defs>
        <path id="a" d="M7 17v11a2 2 0 0 0 2 2h22a2 2 0 0 0 2-2V12a2 2 0 0 0-2-2H9a2 2 0 0 0-2 2v3h24v2H7zm2-9h22a4 4 0 0 1 4 4v16a4 4 0 0 1-4 4H9a4 4 0 0 1-4-4V12a4 4 0 0 1 4-4zm2 11h4a2 2 0 0 1 2 2v4a2 2 0 0 1-2 2h-4a2 2 0 0 1-2-2v-4a2 2 0 0 1 2-2zm0 2v4h4v-4h-4z"/>
    </defs>
    <g fill="none" fill-rule="evenodd">
        <mask id="b" fill="#fff">
            <use xlink:href="#a"/>
        </mask>
        <use fill="#9B9B9B" fill-rule="nonzero" xlink:href="#a"/>
    </g>
</svg>
