<svg xmlns="http://www.w3.org/2000/svg" xmlns:xlink="http://www.w3.org/1999/xlink" width="24" height="24" viewBox="0 0 24 24">
    <defs>
        <path id="a" d="M8.685 17.287C6.655 16.383 4.76 14.62 3 12c2.686-4 5.686-6 9-6 .992 0 1.955.18 2.89.537l.96-1.662a.75.75 0 1 1 1.3.75L8.9 19.915a.75.75 0 1 1-1.3-.75l1.085-1.878zm5.444-9.43A6.51 6.51 0 0 0 12 7.5c-2.529 0-4.908 1.45-7.166 4.5 1.48 2 3.013 3.312 4.606 3.978l.867-1.501a3 3 0 1 1 2.992-5.182l.83-1.437zm-2.616 10.128l.864-1.496c2.389-.138 4.644-1.592 6.789-4.489-.849-1.146-1.714-2.066-2.599-2.768l.757-1.31c1.284.982 2.51 2.341 3.676 4.078-2.686 4-5.686 6-9 6-.163 0-.325-.005-.487-.015zM15 11.947V12a3 3 0 0 1-1.546 2.625L15 11.947z"/>
    </defs>
    <g fill="none" fill-rule="evenodd">
        <mask id="b" fill="#fff">
            <use xlink:href="#a"/>
        </mask>
        <use fill="#9B9B9B" fill-rule="nonzero" xlink:href="#a"/>
    </g>
</svg>
