<svg xmlns="http://www.w3.org/2000/svg" xmlns:xlink="http://www.w3.org/1999/xlink" width="40" height="40" viewBox="0 0 40 40">
    <defs>
        <path id="a" d="M7 11v22h23.143c.456 0 .857-.432.857-1v-5h-5a3 3 0 0 1-3-3v-4a3 3 0 0 1 3-3h5v-5c0-.568-.401-1-.857-1H7zm-2-1V6a1 1 0 0 1 1-1h22a3 3 0 0 1 3 3v1.137c1.167.383 2 1.53 2 2.863v5h3a1 1 0 0 1 1 1v8a1 1 0 0 1-1 1h-3v5c0 1.641-1.262 3-2.857 3H6a1 1 0 0 1-1-1V10zm2-3v2h22V8a1 1 0 0 0-1-1H7zm28 12h-9a1 1 0 0 0-1 1v4a1 1 0 0 0 1 1h9v-6zm-7 5a2 2 0 1 1 0-4 2 2 0 0 1 0 4z"/>
    </defs>
    <g fill="none" fill-rule="evenodd">
        <mask id="b" fill="#fff">
            <use xlink:href="#a"/>
        </mask>
        <use fill="#FFF" fill-rule="nonzero" xlink:href="#a"/>
    </g>
</svg>
